<?xml version="1.0" encoding="UTF-8"?>
<svg id="Layer_1" data-name="Layer 1" xmlns="http://www.w3.org/2000/svg" viewBox="0 0 420.94 110.68">
  <defs>
    <style>
      .cls-1 {
        fill: #76a298;
      }

      .cls-2 {
        fill: #2e6658;
      }
    </style>
  </defs>
  <path class="cls-1" d="M99,27.15s-.07-.08-.11-.12c-.23-.25-.46-.5-.69-.74l-1.46-1.33-26.32,33.23-5.23-11.9c-.37-.84-1.35-1.22-2.18-.85l-.75.33c-.84.37-1.22,1.35-.85,2.18l8,18.18,27.63-34.89c3.96,5.04,6.22,11.48,5.86,18.45-.72,14.08-12.13,25.44-26.21,26.1-16.23.76-29.6-12.62-28.84-28.85.66-14.12,12.09-25.55,26.21-26.21,6.31-.3,12.18,1.54,16.96,4.85.9.62,2.12.44,2.8-.41h0c.74-.93.55-2.29-.42-2.97-5.31-3.68-11.79-5.79-18.77-5.63-16.73.39-30.39,13.91-30.93,30.64-.59,18.3,14.42,33.32,32.73,32.72,16.75-.54,30.28-14.24,30.64-30.99.18-8.37-2.91-16.02-8.06-21.79Z"/>
  <path class="cls-1" d="M114.78,38.93c.07,5.44.06,11.23.23,17.02.07,2.51.17,5.03.27,7.54.09,2.22.21,4.44.3,6.66.07,1.77-.99,3.19-2.62,3.54-1.74.37-3.6-.92-3.91-2.66-.18-1.01.02-2,.05-3,.04-1.55.17-3.11.25-4.66.12-2.23.24-4.47.36-6.7.06-1.2.13-2.4.19-3.59.11-2.28.21-4.57.33-6.85.06-1.08-.32-1.98-1.06-2.72-.83-.84-1.16-1.87-1.17-2.99-.03-3.29-.12-6.59.01-9.88.15-3.75.93-7.4,2.71-10.76.61-1.15,1.47-2.09,2.42-2.95.3-.27.65-.45,1.06-.26.48.22.66.64.66,1.15,0,2.29,0,4.58-.03,6.86-.08,4.64-.05,9.28-.07,14.28ZM113.94,37.8c0-1.44,0-2.88,0-4.31,0-1.46,0-2.93,0-4.39,0-1.46,0-2.93,0-4.39,0-.47,0-.94,0-1.41,0-1.75.03-3.5.04-5.26,0-.15.03-.35-.07-.48-.16-.19-.37-.02-.5.12-.39.46-.77.91-1.1,1.43-.34.54-.63,1.11-.93,1.67-1.83,3.52-2.43,7.34-2.51,11.25-.05,2.69.02,5.39.01,8.08,0,1.18.32,2.19,1.23,2.99.59.52.86,1.21.96,1.97.08.63.09,1.26.05,1.89-.06.94-.09,1.88-.14,2.82-.07,1.47-.15,2.95-.23,4.42-.12,2.23-.24,4.47-.36,6.7-.08,1.41-.16,2.82-.23,4.22-.09,1.75-.21,3.5-.24,5.25-.02,1.23,1.02,2.37,2.17,2.5,1.19.13,2.19-.68,2.53-2,.14-.54,0-1.06-.02-1.59-.13-3.08-.28-6.16-.38-9.24-.11-3.49-.22-6.97-.26-10.46-.02-1.47-.02-2.93-.02-4.4,0-1.65-.01-3.31-.01-4.96,0-.81,0-1.61,0-2.42Z"/>
  <g>
    <path class="cls-1" d="M43.67,34.56c.13,1.44-.45,3.04-1.68,4.4-.35.38-.75.72-1.14,1.06-.81.72-1.22,1.61-1.24,2.69-.02,1.32.11,2.62.18,3.93.06,1.31.17,2.62.25,3.93.13,1.99.25,3.98.37,5.97.08,1.26.14,2.52.22,3.79.12,2.02.29,4.04.36,6.07.05,1.33.29,2.65.12,3.98-.19,1.53-1.62,2.9-3.03,2.95-1.98.08-3.37-.92-3.77-2.7-.25-1.08.01-2.16.04-3.24.03-1.47.17-2.94.25-4.42.13-2.17.25-4.34.37-6.5.08-1.39.14-2.78.22-4.18.12-2.22.19-4.44.36-6.65.07-.94.11-1.88.12-2.82,0-.97-.42-1.78-1.08-2.47-.66-.69-1.32-1.39-1.88-2.17-.73-1.01-1.13-2.13-1.14-3.39,0-2.11.17-4.21.27-6.32.07-1.55.15-3.11.23-4.66.06-1.38.13-2.75.18-4.13.01-.32.1-.57.45-.56.34,0,.44.26.43.58-.03,2.14-.16,4.28-.27,6.42-.08,1.49-.15,2.98-.22,4.47-.05,1-.07,2.01-.16,3.01-.16,1.8.28,3.39,1.51,4.75.51.56,1,1.15,1.52,1.7.89.96,1.16,2.14,1.09,3.41-.12,2.15-.24,4.3-.36,6.46-.12,2.1-.24,4.21-.36,6.31-.08,1.44-.14,2.88-.22,4.32-.12,2.04-.25,4.08-.36,6.11-.06,1.08-.13,2.17-.14,3.26-.01,1.28.92,2.41,2.03,2.55,1.4.18,2.49-.51,2.92-1.85.14-.42.18-.86.15-1.29-.19-2.91-.39-5.82-.56-8.73-.12-1.91-.2-3.82-.31-5.73-.15-2.43-.34-4.85-.46-7.28-.08-1.55-.23-3.1-.23-4.66,0-1.58.61-2.87,1.83-3.84,1.74-1.38,2.42-3.17,2.21-5.35-.09-.9-.1-1.81-.13-2.72-.14-3.6-.28-7.19-.41-10.79-.01-.33-.16-.81.38-.83.57-.03.47.45.49.81.12,2.74.25,5.48.37,8.21.08,1.91.15,3.82.24,6.15Z"/>
    <path class="cls-1" d="M38.8,26.3v-.83c0-1.83,0-3.66-.01-5.49,0-.33.07-.62.42-.65.42-.03.48.31.48.64.02,1.8.04,3.6.05,5.4,0,1.1,0,2.2.01,3.3,0,1.1,0,2.2,0,3.3,0,.23,0,.47,0,.7,0,.19-.01.4-.17.53-.21.17-.56.11-.72-.09-.14-.17-.09-.43-.09-.63,0-.26,0-.53,0-.79,0-1.06.01-2.11.01-3.17v-2.21Z"/>
    <path class="cls-1" d="M35.48,26.25c0-2.13,0-4.27,0-6.4,0-.26.05-.45.31-.54.3-.1.62.02.65.35.01.13,0,.26,0,.39,0,4.17.02,8.34-.1,12.51,0,.03,0,.06,0,.1,0,.32-.09.55-.46.54-.34,0-.42-.24-.41-.53,0-1.04,0-2.08.01-3.12,0-1.1,0-2.21,0-3.31Z"/>
  </g>
  <path class="cls-1" d="M90.44,34.66c3.23,3.6,5.2,8.36,5.2,13.56,0,11.21-9.12,20.34-20.34,20.34s-20.34-9.12-20.34-20.34,9.12-20.34,20.34-20.34c4.8,0,9.22,1.68,12.7,4.47l.18-.23c-3.53-2.83-8.01-4.54-12.89-4.54-11.38,0-20.63,9.26-20.63,20.63s9.26,20.63,20.63,20.63,20.63-9.26,20.63-20.63c0-5.3-2.01-10.14-5.31-13.8l-.18.24Z"/>
  <g>
    <path class="cls-2" d="M144.3,42.49c.03-.33.11-.54.25-.63.13-.09.4-.13.79-.13h1.57c.39,0,.65.06.79.18.13.12.2.34.2.67,0,1.2-.2,2.34-.61,3.43-.4,1.09-.96,2-1.68,2.71-2,1.97-4.83,2.96-8.48,2.96-2.42,0-4.49-.47-6.21-1.41-1.72-.94-3-2.4-3.84-4.37-.33-.87-.57-1.84-.72-2.92-.15-1.08-.22-2.44-.22-4.08v-7.36c0-1.71.07-3.1.22-4.17.15-1.08.39-2.03.72-2.87,1.64-4.13,5.12-6.19,10.41-6.19,3.8,0,6.54.96,8.21,2.87,1.47,1.59,2.2,3.62,2.2,6.1,0,.33-.07.55-.2.67-.13.12-.4.18-.79.18h-1.66c-.39,0-.65-.05-.79-.16-.13-.1-.22-.31-.25-.61-.3-3.92-2.62-5.88-6.96-5.88-2.6,0-4.49.76-5.68,2.27-1.18,1.51-1.77,3.93-1.77,7.25v7.99c0,3.29.59,5.69,1.77,7.2,1.18,1.51,3.06,2.27,5.63,2.27,4.37,0,6.73-1.99,7.09-5.97Z"/>
    <path class="cls-2" d="M156.32,19.92v30.15c0,.36-.07.6-.2.72-.13.12-.38.18-.74.18h-1.66c-.36,0-.61-.06-.74-.18-.13-.12-.2-.36-.2-.72v-30.15c0-.36.07-.6.2-.72.13-.12.38-.18.74-.18h1.66c.36,0,.61.06.74.18.13.12.2.36.2.72Z"/>
    <path class="cls-2" d="M179.39,40.29h-14.22v.85c0,4.94,2,7.4,6.01,7.4,2.54,0,4.23-.97,5.07-2.92.15-.36.28-.58.4-.65.12-.07.33-.11.63-.11h1.62c.42,0,.69.04.81.11.12.08.18.28.18.61,0,.42-.16.96-.49,1.62-.33.66-.7,1.23-1.12,1.7-.75.84-1.77,1.5-3.05,1.97-1.29.48-2.68.72-4.17.72-2.99,0-5.31-.88-6.96-2.65-1.65-1.76-2.47-4.28-2.47-7.54v-3.37c0-3.59.81-6.36,2.45-8.3,1.63-1.94,3.97-2.92,7.02-2.92,6.16,0,9.24,3.43,9.24,10.28v2.29c0,.36-.07.6-.2.72-.13.12-.38.18-.74.18ZM171.09,29.61c-3.92,0-5.89,2.59-5.92,7.76h11.58c0-2.66-.46-4.62-1.37-5.88-.91-1.26-2.34-1.88-4.29-1.88Z"/>
    <path class="cls-2" d="M193.88,36.61c.6,0,1.36.03,2.29.09.93.06,1.85.15,2.78.27v-2.65c0-1.64-.38-2.83-1.14-3.57-.76-.73-2.01-1.1-3.75-1.1-1.38,0-2.44.2-3.19.61-.75.4-1.33,1.1-1.75,2.09-.12.3-.23.5-.34.61s-.34.16-.7.16h-1.62c-.39,0-.65-.06-.79-.18-.13-.12-.2-.34-.2-.67,0-.42.12-.88.36-1.39.24-.51.54-.96.9-1.35.78-.9,1.76-1.57,2.94-2.02,1.18-.45,2.64-.67,4.38-.67,2.99,0,5.14.58,6.46,1.73,1.32,1.15,1.97,3.04,1.97,5.68v9.2c0,2.69-.68,4.7-2.04,6.01-1.36,1.32-3.51,1.97-6.44,1.97h-.67c-3.02,0-5.27-.57-6.73-1.71-1.47-1.14-2.2-2.95-2.2-5.43,0-2.66.77-4.61,2.31-5.83,1.54-1.23,3.93-1.84,7.16-1.84ZM194.15,39.57c-2.3,0-3.9.36-4.78,1.08-.88.72-1.32,1.91-1.32,3.59,0,1.47.42,2.53,1.26,3.19.84.66,2.27.99,4.31.99h.4c1.76,0,3.03-.43,3.79-1.28.76-.85,1.14-2.22,1.14-4.11v-3.05c-.9-.12-1.79-.22-2.67-.29-.88-.07-1.59-.11-2.13-.11Z"/>
    <path class="cls-2" d="M211.69,28.35v3.41c.57-1.29,1.43-2.33,2.58-3.12,1.15-.79,2.45-1.19,3.88-1.19h.58c.33,0,.54.06.63.18.09.12.14.36.14.72v1.62c0,.36-.05.6-.14.72-.09.12-.3.18-.63.18h-1.17c-1.77,0-3.17.74-4.22,2.22-1.05,1.48-1.57,3.33-1.57,5.54v11.44c0,.36-.07.6-.2.72-.13.12-.38.18-.74.18h-1.66c-.36,0-.6-.06-.74-.18-.13-.12-.2-.36-.2-.72v-21.72c0-.36.07-.6.2-.72.14-.12.38-.18.74-.18h1.57c.36,0,.61.06.74.18.13.12.2.36.2.72Z"/>
    <path class="cls-2" d="M246.78,41.45h-1.75c-.36,0-.62-.05-.79-.16-.16-.1-.32-.34-.47-.7l-7.13-15.35v24.81c0,.36-.07.6-.2.72-.13.12-.38.18-.74.18h-1.62c-.36,0-.61-.06-.74-.18-.13-.12-.2-.36-.2-.72v-30.15c0-.36.07-.6.2-.72.13-.12.38-.18.74-.18h2.47c.36,0,.62.05.79.16.16.11.32.34.47.7l8.17,17.77,8.39-17.77c.15-.36.31-.59.47-.7.16-.1.43-.16.79-.16h2.29c.36,0,.61.06.74.18.13.12.2.36.2.72v30.15c0,.36-.07.6-.2.72-.13.12-.38.18-.74.18h-1.62c-.36,0-.61-.06-.74-.18-.13-.12-.2-.36-.2-.72v-24.81l-7.31,15.35c-.15.36-.31.59-.47.7-.16.1-.43.16-.79.16Z"/>
    <path class="cls-2" d="M265.49,55.5h.54c1.23,0,2.18-.23,2.87-.7.69-.46,1.29-1.44,1.8-2.94l.54-1.57-8.26-21.76c-.09-.27-.13-.45-.13-.54,0-.36.24-.54.72-.54h1.97c.3,0,.52.06.65.18.13.12.26.37.38.76l6.42,17.32,5.97-17.32c.15-.39.28-.64.4-.76.12-.12.33-.18.63-.18h1.88c.48,0,.72.18.72.54,0,.09-.05.27-.13.54l-8.44,23.6c-.63,1.82-1.3,3.2-2.02,4.13-.72.93-1.52,1.55-2.4,1.88-.88.33-1.91.49-3.07.49h-1.03c-.3,0-.5-.06-.61-.18-.11-.12-.16-.36-.16-.72v-1.35c0-.36.05-.6.16-.72.1-.12.31-.18.61-.18Z"/>
    <path class="cls-2" d="M305.61,38.36h-6.19v11.71c0,.36-.07.6-.2.72-.13.12-.38.18-.74.18h-1.62c-.36,0-.61-.06-.74-.18-.13-.12-.2-.36-.2-.72v-30.15c0-.36.07-.6.2-.72.13-.12.38-.18.74-.18h8.75c3.56,0,6.15.75,7.79,2.24,1.63,1.5,2.45,3.86,2.45,7.09v.9c0,6.07-3.41,9.11-10.23,9.11ZM299.42,22.07v13.24h6.33c2.3,0,3.94-.46,4.91-1.39.97-.93,1.46-2.48,1.46-4.67v-.72c0-2.39-.48-4.07-1.44-5.03-.96-.96-2.6-1.44-4.94-1.44h-6.33Z"/>
    <path class="cls-2" d="M324.19,19.92v30.15c0,.36-.07.6-.2.72-.13.12-.38.18-.74.18h-1.66c-.36,0-.61-.06-.74-.18-.13-.12-.2-.36-.2-.72v-30.15c0-.36.07-.6.2-.72.13-.12.38-.18.74-.18h1.66c.36,0,.61.06.74.18.13.12.2.36.2.72Z"/>
    <path class="cls-2" d="M338.72,36.61c.6,0,1.36.03,2.29.09.93.06,1.85.15,2.78.27v-2.65c0-1.64-.38-2.83-1.14-3.57-.76-.73-2.01-1.1-3.75-1.1-1.38,0-2.44.2-3.19.61-.75.4-1.33,1.1-1.75,2.09-.12.3-.23.5-.34.61-.1.11-.34.16-.7.16h-1.62c-.39,0-.65-.06-.79-.18-.13-.12-.2-.34-.2-.67,0-.42.12-.88.36-1.39.24-.51.54-.96.9-1.35.78-.9,1.76-1.57,2.94-2.02,1.18-.45,2.64-.67,4.37-.67,2.99,0,5.15.58,6.46,1.73,1.32,1.15,1.97,3.04,1.97,5.68v9.2c0,2.69-.68,4.7-2.04,6.01-1.36,1.32-3.51,1.97-6.44,1.97h-.67c-3.02,0-5.27-.57-6.73-1.71-1.47-1.14-2.2-2.95-2.2-5.43,0-2.66.77-4.61,2.31-5.83,1.54-1.23,3.93-1.84,7.16-1.84ZM338.99,39.57c-2.3,0-3.9.36-4.78,1.08-.88.72-1.32,1.91-1.32,3.59,0,1.47.42,2.53,1.26,3.19.84.66,2.27.99,4.31.99h.4c1.76,0,3.03-.43,3.79-1.28.76-.85,1.14-2.22,1.14-4.11v-3.05c-.9-.12-1.79-.22-2.67-.29-.88-.07-1.59-.11-2.13-.11Z"/>
    <path class="cls-2" d="M362.42,50.97h-2.42c-2,0-3.48-.48-4.42-1.44-.94-.96-1.41-2.47-1.41-4.53v-14.58h-2.92c-.3,0-.5-.06-.61-.18-.1-.12-.16-.36-.16-.72v-1.17c0-.36.05-.6.16-.72.1-.12.31-.18.61-.18h2.92v-5.7c0-.36.07-.6.2-.72.13-.12.38-.18.74-.18h1.66c.36,0,.61.06.74.18.13.12.2.36.2.72v5.7h4.62c.33,0,.54.06.63.18.09.12.13.36.13.72v1.17c0,.36-.04.6-.13.72-.09.12-.3.18-.63.18h-4.62v14c0,1.2.2,2.06.61,2.6.4.54,1.07.81,2,.81h2.11c.33,0,.54.06.63.18.09.12.13.36.13.72v1.35c0,.36-.05.6-.13.72-.09.12-.3.18-.63.18Z"/>
    <path class="cls-2" d="M384.31,40.29h-14.22v.85c0,4.94,2,7.4,6.01,7.4,2.54,0,4.23-.97,5.07-2.92.15-.36.28-.58.4-.65.12-.07.33-.11.63-.11h1.62c.42,0,.69.04.81.11.12.08.18.28.18.61,0,.42-.16.96-.49,1.62-.33.66-.7,1.23-1.12,1.7-.75.84-1.77,1.5-3.05,1.97-1.29.48-2.68.72-4.17.72-2.99,0-5.31-.88-6.95-2.65-1.65-1.76-2.47-4.28-2.47-7.54v-3.37c0-3.59.81-6.36,2.45-8.3,1.63-1.94,3.97-2.92,7.02-2.92,6.16,0,9.24,3.43,9.24,10.28v2.29c0,.36-.07.6-.2.72-.13.12-.38.18-.74.18ZM376.01,29.61c-3.92,0-5.89,2.59-5.92,7.76h11.58c0-2.66-.46-4.62-1.37-5.88-.91-1.26-2.34-1.88-4.29-1.88Z"/>
  </g>
  <g>
    <path class="cls-2" d="M136.1,62.16v10.6c0,.13-.02.21-.07.25-.05.04-.13.06-.26.06h-.6c-.13,0-.21-.02-.26-.06-.05-.04-.07-.13-.07-.25v-5.08h-5.2v5.08c0,.13-.02.21-.07.25-.05.04-.13.06-.26.06h-.6c-.13,0-.21-.02-.26-.06-.05-.04-.07-.13-.07-.25v-10.6c0-.13.02-.21.07-.25.05-.04.13-.06.26-.06h.6c.13,0,.21.02.26.06.05.04.07.13.07.25v4.42h5.2v-4.42c0-.13.02-.21.07-.25.05-.04.13-.06.26-.06h.6c.13,0,.21.02.26.06.05.04.07.13.07.25Z"/>
    <path class="cls-2" d="M145.11,69.32h-5v.3c0,1.73.7,2.6,2.11,2.6.89,0,1.49-.34,1.78-1.02.05-.13.1-.2.14-.23.04-.03.12-.04.22-.04h.57c.15,0,.24.01.28.04.04.03.06.1.06.21,0,.15-.06.34-.17.57-.12.23-.25.43-.39.6-.26.29-.62.53-1.07.69s-.94.25-1.47.25c-1.05,0-1.87-.31-2.44-.93-.58-.62-.87-1.5-.87-2.65v-1.18c0-1.26.29-2.23.86-2.92.57-.68,1.4-1.02,2.47-1.02,2.17,0,3.25,1.2,3.25,3.61v.8c0,.13-.02.21-.07.25-.05.04-.13.06-.26.06ZM142.19,65.57c-1.38,0-2.07.91-2.08,2.73h4.07c0-.94-.16-1.62-.48-2.07-.32-.44-.82-.66-1.51-.66Z"/>
    <path class="cls-2" d="M150.99,68.03c.21,0,.48.01.8.03.33.02.65.05.98.09v-.93c0-.58-.13-1-.4-1.25-.27-.26-.71-.39-1.32-.39-.48,0-.86.07-1.12.21-.26.14-.47.39-.62.73-.04.11-.08.18-.12.21s-.12.06-.24.06h-.57c-.14,0-.23-.02-.28-.06-.05-.04-.07-.12-.07-.24,0-.15.04-.31.13-.49.08-.18.19-.34.32-.47.27-.32.62-.55,1.03-.71.42-.16.93-.24,1.54-.24,1.05,0,1.81.2,2.27.61.46.4.69,1.07.69,1.99v3.23c0,.95-.24,1.65-.72,2.11-.48.46-1.23.69-2.26.69h-.24c-1.06,0-1.85-.2-2.37-.6-.52-.4-.77-1.04-.77-1.91,0-.94.27-1.62.81-2.05.54-.43,1.38-.65,2.52-.65ZM151.08,69.07c-.81,0-1.37.13-1.68.38-.31.25-.46.67-.46,1.26,0,.52.15.89.44,1.12.29.23.8.35,1.51.35h.14c.62,0,1.06-.15,1.33-.45.27-.3.4-.78.4-1.44v-1.07c-.32-.04-.63-.08-.94-.1-.31-.03-.56-.04-.75-.04Z"/>
    <path class="cls-2" d="M158.07,62.16v10.6c0,.13-.02.21-.07.25-.05.04-.13.06-.26.06h-.58c-.13,0-.21-.02-.26-.06-.05-.04-.07-.13-.07-.25v-10.6c0-.13.02-.21.07-.25.05-.04.13-.06.26-.06h.58c.13,0,.21.02.26.06.05.04.07.13.07.25Z"/>
    <path class="cls-2" d="M164.47,73.07h-.85c-.7,0-1.22-.17-1.55-.5-.33-.34-.5-.87-.5-1.59v-5.12h-1.02c-.11,0-.18-.02-.21-.06-.04-.04-.06-.13-.06-.25v-.41c0-.13.02-.21.06-.25.04-.04.11-.06.21-.06h1.02v-2c0-.13.02-.21.07-.25.05-.04.13-.06.26-.06h.58c.13,0,.21.02.26.06.05.04.07.13.07.25v2h1.62c.12,0,.19.02.22.06.03.04.05.13.05.25v.41c0,.13-.02.21-.05.25-.03.04-.11.06-.22.06h-1.62v4.92c0,.42.07.73.21.91.14.19.38.28.7.28h.74c.12,0,.19.02.22.06.03.04.05.13.05.25v.47c0,.13-.02.21-.05.25-.03.04-.11.06-.22.06Z"/>
    <path class="cls-2" d="M168.43,62.16v3.48c.56-.7,1.36-1.06,2.4-1.06.87,0,1.54.24,2.01.71.47.47.7,1.16.7,2.07v5.39c0,.13-.02.21-.07.25-.05.04-.13.06-.26.06h-.58c-.13,0-.21-.02-.26-.06-.05-.04-.07-.13-.07-.25v-5.12c0-.67-.14-1.16-.43-1.47-.29-.31-.74-.47-1.36-.47s-1.12.2-1.5.61c-.38.4-.57.94-.57,1.62v4.84c0,.13-.02.21-.07.25-.05.04-.13.06-.26.06h-.58c-.13,0-.21-.02-.26-.06-.05-.04-.07-.13-.07-.25v-10.6c0-.13.02-.21.07-.25.05-.04.13-.06.26-.06h.58c.13,0,.21.02.26.06.05.04.07.13.07.25Z"/>
    <path class="cls-2" d="M176.47,74.66h.19c.43,0,.77-.08,1.01-.24.24-.16.45-.51.63-1.03l.19-.55-2.9-7.65c-.03-.09-.05-.16-.05-.19,0-.13.08-.19.25-.19h.69c.1,0,.18.02.23.06.05.04.09.13.13.27l2.25,6.09,2.1-6.09c.05-.14.1-.23.14-.27.04-.04.12-.06.22-.06h.66c.17,0,.25.06.25.19,0,.03-.02.09-.05.19l-2.96,8.29c-.22.64-.46,1.12-.71,1.45-.25.33-.53.55-.84.66-.31.12-.67.17-1.08.17h-.36c-.11,0-.18-.02-.21-.06-.04-.04-.06-.13-.06-.25v-.47c0-.13.02-.21.06-.25.04-.04.11-.06.21-.06Z"/>
    <path class="cls-2" d="M193.53,69.73h-.61c-.13,0-.22-.02-.28-.06s-.11-.12-.17-.24l-2.51-5.39v8.72c0,.13-.02.21-.07.25-.05.04-.13.06-.26.06h-.57c-.13,0-.21-.02-.26-.06-.05-.04-.07-.13-.07-.25v-10.6c0-.13.02-.21.07-.25.05-.04.13-.06.26-.06h.87c.13,0,.22.02.28.06.06.04.11.12.17.24l2.87,6.24,2.95-6.24c.05-.13.11-.21.17-.24.06-.04.15-.06.28-.06h.8c.13,0,.21.02.26.06.05.04.07.13.07.25v10.6c0,.13-.02.21-.07.25-.05.04-.13.06-.26.06h-.57c-.13,0-.21-.02-.26-.06-.05-.04-.07-.13-.07-.25v-8.72l-2.57,5.39c-.05.13-.11.21-.17.24-.06.04-.15.06-.28.06Z"/>
    <path class="cls-2" d="M206.78,69.32h-5v.3c0,1.73.7,2.6,2.11,2.6.89,0,1.49-.34,1.78-1.02.05-.13.1-.2.14-.23.04-.03.12-.04.22-.04h.57c.15,0,.24.01.28.04.04.03.06.1.06.21,0,.15-.06.34-.17.57-.12.23-.25.43-.39.6-.26.29-.62.53-1.07.69s-.94.25-1.47.25c-1.05,0-1.87-.31-2.44-.93-.58-.62-.87-1.5-.87-2.65v-1.18c0-1.26.29-2.23.86-2.92.57-.68,1.4-1.02,2.47-1.02,2.17,0,3.25,1.2,3.25,3.61v.8c0,.13-.02.21-.07.25-.05.04-.13.06-.26.06ZM203.86,65.57c-1.38,0-2.07.91-2.08,2.73h4.07c0-.94-.16-1.62-.48-2.07-.32-.44-.82-.66-1.51-.66Z"/>
    <path class="cls-2" d="M212.66,68.03c.21,0,.48.01.8.03.33.02.65.05.98.09v-.93c0-.58-.13-1-.4-1.25-.27-.26-.71-.39-1.32-.39-.48,0-.86.07-1.12.21s-.47.39-.62.73c-.04.11-.08.18-.12.21-.04.04-.12.06-.24.06h-.57c-.14,0-.23-.02-.28-.06-.05-.04-.07-.12-.07-.24,0-.15.04-.31.13-.49.08-.18.19-.34.32-.47.27-.32.62-.55,1.03-.71s.93-.24,1.54-.24c1.05,0,1.81.2,2.27.61.46.4.69,1.07.69,1.99v3.23c0,.95-.24,1.65-.72,2.11-.48.46-1.23.69-2.26.69h-.24c-1.06,0-1.85-.2-2.37-.6-.51-.4-.77-1.04-.77-1.91,0-.94.27-1.62.81-2.05.54-.43,1.38-.65,2.52-.65ZM212.75,69.07c-.81,0-1.37.13-1.68.38-.31.25-.46.67-.46,1.26,0,.52.15.89.44,1.12.29.23.8.35,1.51.35h.14c.62,0,1.06-.15,1.33-.45s.4-.78.4-1.44v-1.07c-.32-.04-.63-.08-.94-.1-.31-.03-.56-.04-.75-.04Z"/>
    <path class="cls-2" d="M219.74,62.16v10.6c0,.13-.02.21-.07.25-.05.04-.13.06-.26.06h-.58c-.13,0-.21-.02-.26-.06-.05-.04-.07-.13-.07-.25v-10.6c0-.13.02-.21.07-.25.05-.04.13-.06.26-.06h.58c.13,0,.21.02.26.06.05.04.07.13.07.25Z"/>
    <path class="cls-2" d="M230.29,68.64h-2.18v4.12c0,.13-.02.21-.07.25-.05.04-.13.06-.26.06h-.57c-.13,0-.21-.02-.26-.06-.05-.04-.07-.13-.07-.25v-10.6c0-.13.02-.21.07-.25.05-.04.13-.06.26-.06h3.07c1.25,0,2.16.26,2.74.79.57.53.86,1.36.86,2.49v.32c0,2.13-1.2,3.2-3.6,3.2ZM228.11,62.92v4.65h2.22c.81,0,1.38-.16,1.73-.49.34-.33.51-.87.51-1.64v-.25c0-.84-.17-1.43-.5-1.77-.34-.34-.91-.5-1.73-.5h-2.22Z"/>
    <path class="cls-2" d="M237.6,62.16v10.6c0,.13-.02.21-.07.25-.05.04-.13.06-.26.06h-.58c-.13,0-.21-.02-.26-.06-.05-.04-.07-.13-.07-.25v-10.6c0-.13.02-.21.07-.25.05-.04.13-.06.26-.06h.58c.13,0,.21.02.26.06.05.04.07.13.07.25Z"/>
    <path class="cls-2" d="M243.5,68.03c.21,0,.48.01.8.03.33.02.65.05.98.09v-.93c0-.58-.13-1-.4-1.25-.27-.26-.71-.39-1.32-.39-.48,0-.86.07-1.12.21s-.47.39-.62.73c-.04.11-.08.18-.12.21-.04.04-.12.06-.24.06h-.57c-.14,0-.23-.02-.28-.06-.05-.04-.07-.12-.07-.24,0-.15.04-.31.13-.49.08-.18.19-.34.32-.47.27-.32.62-.55,1.03-.71s.93-.24,1.54-.24c1.05,0,1.81.2,2.27.61.46.4.69,1.07.69,1.99v3.23c0,.95-.24,1.65-.72,2.11-.48.46-1.23.69-2.26.69h-.24c-1.06,0-1.85-.2-2.37-.6-.52-.4-.77-1.04-.77-1.91,0-.94.27-1.62.81-2.05.54-.43,1.38-.65,2.52-.65ZM243.6,69.07c-.81,0-1.37.13-1.68.38-.31.25-.46.67-.46,1.26,0,.52.15.89.44,1.12.29.23.8.35,1.51.35h.14c.62,0,1.06-.15,1.33-.45s.4-.78.4-1.44v-1.07c-.32-.04-.63-.08-.94-.1-.31-.03-.56-.04-.75-.04Z"/>
    <path class="cls-2" d="M252.98,64.59c.87,0,1.54.24,2.01.71.47.47.7,1.16.7,2.07v5.39c0,.13-.02.21-.07.25-.05.04-.13.06-.26.06h-.58c-.13,0-.21-.02-.26-.06-.05-.04-.07-.13-.07-.25v-5.12c0-.67-.14-1.16-.43-1.47-.29-.31-.74-.47-1.36-.47s-1.12.2-1.5.61c-.38.4-.57.94-.57,1.62v4.84c0,.13-.02.21-.07.25-.05.04-.13.06-.26.06h-.58c-.13,0-.21-.02-.26-.06-.05-.04-.07-.13-.07-.25v-7.63c0-.13.02-.21.07-.25.05-.04.13-.06.26-.06h.55c.13,0,.21.02.26.06.05.04.07.13.07.25v.55c.55-.73,1.36-1.09,2.43-1.09Z"/>
    <path class="cls-2" d="M262.22,64.59c.87,0,1.54.24,2.01.71.47.47.7,1.16.7,2.07v5.39c0,.13-.02.21-.07.25-.05.04-.13.06-.26.06h-.58c-.13,0-.21-.02-.26-.06-.05-.04-.07-.13-.07-.25v-5.12c0-.67-.14-1.16-.43-1.47-.29-.31-.74-.47-1.36-.47s-1.12.2-1.5.61c-.38.4-.57.94-.57,1.62v4.84c0,.13-.02.21-.07.25-.05.04-.13.06-.26.06h-.58c-.13,0-.21-.02-.26-.06-.05-.04-.07-.13-.07-.25v-7.63c0-.13.02-.21.07-.25.05-.04.13-.06.26-.06h.55c.13,0,.21.02.26.06.05.04.07.13.07.25v.55c.55-.73,1.36-1.09,2.43-1.09Z"/>
    <path class="cls-2" d="M268.45,63.34c-.24,0-.43-.06-.58-.19-.14-.13-.21-.3-.21-.52v-.25c0-.21.07-.38.21-.5.14-.13.33-.19.58-.19s.45.06.6.19c.15.13.22.29.22.5v.25c0,.22-.07.39-.22.52-.15.13-.35.19-.6.19ZM269.06,65.12v7.63c0,.13-.02.21-.07.25-.05.04-.13.06-.26.06h-.58c-.13,0-.21-.02-.26-.06-.05-.04-.07-.13-.07-.25v-7.63c0-.13.02-.21.07-.25.05-.04.13-.06.26-.06h.58c.13,0,.21.02.26.06.05.04.07.13.07.25Z"/>
    <path class="cls-2" d="M275.67,64.59c.87,0,1.54.24,2.01.71.47.47.7,1.16.7,2.07v5.39c0,.13-.02.21-.07.25-.05.04-.13.06-.26.06h-.58c-.13,0-.21-.02-.26-.06-.05-.04-.07-.13-.07-.25v-5.12c0-.67-.14-1.16-.43-1.47-.29-.31-.74-.47-1.36-.47s-1.12.2-1.5.61c-.38.4-.57.94-.57,1.62v4.84c0,.13-.02.21-.07.25-.05.04-.13.06-.26.06h-.58c-.13,0-.21-.02-.26-.06-.05-.04-.07-.13-.07-.25v-7.63c0-.13.02-.21.07-.25.05-.04.13-.06.26-.06h.55c.13,0,.21.02.26.06.05.04.07.13.07.25v.55c.55-.73,1.36-1.09,2.43-1.09Z"/>
    <path class="cls-2" d="M282.62,74.24c.22.48.78.73,1.67.73.75,0,1.29-.15,1.62-.44.37-.34.55-.86.55-1.58v-.74c-.53.62-1.29.93-2.3.93s-1.82-.3-2.38-.89c-.56-.59-.84-1.44-.84-2.55v-1.51c0-1.14.29-2.02.88-2.65.59-.63,1.42-.95,2.49-.95s1.91.3,2.5.9.89,1.45.89,2.54v4.86c0,.8-.14,1.42-.42,1.88-.28.45-.67.77-1.18.95-.51.18-1.12.28-1.84.28-.87,0-1.58-.17-2.14-.5-.55-.33-.83-.75-.83-1.27,0-.12.02-.19.06-.21.04-.03.14-.04.28-.04h.6c.12,0,.19.01.23.04.04.03.08.1.13.23ZM282.2,68.28v1.17c0,1.75.71,2.62,2.14,2.62s2.13-.87,2.13-2.62v-1.17c0-1.74-.72-2.62-2.14-2.62s-2.13.87-2.13,2.62Z"/>
    <path class="cls-2" d="M299.49,69.73h-.62c-.13,0-.22-.02-.28-.06s-.11-.12-.17-.24l-2.51-5.39v8.72c0,.13-.02.21-.07.25-.05.04-.13.06-.26.06h-.57c-.13,0-.21-.02-.26-.06-.05-.04-.07-.13-.07-.25v-10.6c0-.13.02-.21.07-.25.05-.04.13-.06.26-.06h.87c.13,0,.22.02.28.06.06.04.11.12.17.24l2.87,6.24,2.95-6.24c.05-.13.11-.21.17-.24.06-.04.15-.06.28-.06h.8c.13,0,.21.02.26.06.05.04.07.13.07.25v10.6c0,.13-.02.21-.07.25-.05.04-.13.06-.26.06h-.57c-.13,0-.21-.02-.26-.06-.05-.04-.07-.13-.07-.25v-8.72l-2.57,5.39c-.05.13-.11.21-.17.24-.06.04-.15.06-.28.06Z"/>
    <path class="cls-2" d="M309.74,68.03c.21,0,.48.01.8.03.33.02.65.05.98.09v-.93c0-.58-.13-1-.4-1.25-.27-.26-.71-.39-1.32-.39-.48,0-.86.07-1.12.21s-.47.39-.62.73c-.04.11-.08.18-.12.21-.04.04-.12.06-.24.06h-.57c-.14,0-.23-.02-.28-.06-.05-.04-.07-.12-.07-.24,0-.15.04-.31.13-.49.08-.18.19-.34.32-.47.27-.32.62-.55,1.03-.71s.93-.24,1.54-.24c1.05,0,1.81.2,2.27.61.46.4.69,1.07.69,1.99v3.23c0,.95-.24,1.65-.72,2.11-.48.46-1.23.69-2.26.69h-.24c-1.06,0-1.85-.2-2.37-.6-.52-.4-.77-1.04-.77-1.91,0-.94.27-1.62.81-2.05.54-.43,1.38-.65,2.52-.65ZM309.84,69.07c-.81,0-1.37.13-1.68.38-.31.25-.46.67-.46,1.26,0,.52.15.89.44,1.12.29.23.8.35,1.51.35h.14c.62,0,1.06-.15,1.33-.45s.4-.78.4-1.44v-1.07c-.32-.04-.63-.08-.94-.1-.31-.03-.56-.04-.75-.04Z"/>
    <path class="cls-2" d="M318.5,64.59c1.02,0,1.79.33,2.32.98v-3.41c0-.13.02-.21.07-.25.05-.04.13-.06.26-.06h.58c.13,0,.21.02.26.06.05.04.07.13.07.25v7.54c0,1.14-.3,2.02-.89,2.65-.59.63-1.43.95-2.52.95s-1.91-.29-2.5-.88c-.59-.59-.89-1.41-.89-2.48v-1.75c0-1.12.29-2.01.86-2.64.57-.64,1.36-.95,2.37-.95ZM316.51,68.28v1.32c0,1.75.71,2.62,2.14,2.62s2.16-.87,2.16-2.62v-1.32c0-1.74-.72-2.62-2.14-2.62s-2.16.87-2.16,2.62Z"/>
    <path class="cls-2" d="M330.8,69.32h-5v.3c0,1.73.7,2.6,2.11,2.6.89,0,1.49-.34,1.78-1.02.05-.13.1-.2.14-.23.04-.03.12-.04.22-.04h.57c.15,0,.24.01.28.04.04.03.06.1.06.21,0,.15-.06.34-.17.57-.12.23-.25.43-.39.6-.26.29-.62.53-1.07.69-.45.17-.94.25-1.47.25-1.05,0-1.87-.31-2.44-.93s-.87-1.5-.87-2.65v-1.18c0-1.26.29-2.23.86-2.92.57-.68,1.4-1.02,2.47-1.02,2.17,0,3.25,1.2,3.25,3.61v.8c0,.13-.02.21-.07.25-.05.04-.13.06-.26.06ZM327.88,65.57c-1.38,0-2.07.91-2.08,2.73h4.07c0-.94-.16-1.62-.48-2.07s-.82-.66-1.51-.66Z"/>
    <path class="cls-2" d="M338.59,70.63c.12.52.38.91.8,1.17s.97.4,1.64.4c.73,0,1.29-.17,1.69-.51.4-.34.6-.83.6-1.46,0-.98-.52-1.64-1.56-2l-2.03-.68c-1.48-.5-2.22-1.44-2.22-2.81v-.08c0-.97.32-1.72.96-2.26.64-.54,1.54-.81,2.7-.81.65,0,1.2.08,1.66.25.45.17.83.44,1.12.8.17.2.3.44.41.73.1.28.16.55.16.79,0,.12-.02.19-.07.24-.05.04-.14.06-.28.06h-.55c-.14,0-.23-.02-.27-.06-.04-.04-.07-.11-.09-.21-.16-1.02-.89-1.53-2.21-1.53-.7,0-1.26.17-1.66.5-.41.34-.61.8-.61,1.4,0,.52.12.91.37,1.19.25.28.7.52,1.35.73l2.03.68c.68.23,1.21.6,1.57,1.1.36.5.54,1.11.54,1.83v.08c0,.96-.32,1.72-.96,2.29-.64.57-1.5.85-2.59.85-1.31,0-2.29-.3-2.93-.91-.23-.22-.43-.5-.58-.84-.16-.34-.24-.64-.24-.91,0-.12.02-.19.07-.24s.14-.06.28-.06h.55c.13,0,.21.02.26.05.05.03.08.11.1.22Z"/>
    <path class="cls-2" d="M347.81,63.34c-.24,0-.43-.06-.58-.19-.14-.13-.21-.3-.21-.52v-.25c0-.21.07-.38.21-.5.14-.13.33-.19.58-.19s.45.06.6.19c.15.13.22.29.22.5v.25c0,.22-.07.39-.22.52-.15.13-.35.19-.6.19ZM348.42,65.12v7.63c0,.13-.02.21-.07.25-.05.04-.13.06-.26.06h-.58c-.13,0-.21-.02-.26-.06-.05-.04-.07-.13-.07-.25v-7.63c0-.13.02-.21.07-.25.05-.04.13-.06.26-.06h.58c.13,0,.21.02.26.06.05.04.07.13.07.25Z"/>
    <path class="cls-2" d="M359.89,64.59c.84,0,1.49.24,1.94.71.45.47.68,1.16.68,2.07v5.39c0,.13-.02.21-.07.25-.05.04-.13.06-.26.06h-.58c-.13,0-.21-.02-.26-.06-.05-.04-.07-.13-.07-.25v-5.12c0-.67-.14-1.16-.41-1.47-.27-.31-.7-.47-1.29-.47s-1.08.2-1.44.6c-.36.4-.54.94-.54,1.62v4.84c0,.13-.02.21-.07.25-.05.04-.13.06-.26.06h-.58c-.13,0-.21-.02-.26-.06-.05-.04-.07-.13-.07-.25v-5.12c0-.67-.14-1.16-.41-1.47-.27-.31-.7-.47-1.29-.47s-1.08.2-1.44.6c-.36.4-.54.94-.54,1.62v4.84c0,.13-.02.21-.07.25-.05.04-.13.06-.26.06h-.58c-.13,0-.21-.02-.26-.06-.05-.04-.07-.13-.07-.25v-7.63c0-.13.02-.21.07-.25.05-.04.13-.06.26-.06h.55c.13,0,.21.02.26.06.05.04.07.13.07.25v.55c.53-.73,1.31-1.09,2.35-1.09,1.15,0,1.92.43,2.33,1.29.34-.46.71-.79,1.12-.99.41-.2.9-.3,1.48-.3Z"/>
    <path class="cls-2" d="M368.8,73.29c-1.04,0-1.81-.33-2.32-.98v3.14c0,.13-.02.21-.07.25-.05.04-.13.06-.26.06h-.58c-.13,0-.21-.02-.26-.06-.05-.04-.07-.13-.07-.25v-7.27c0-1.14.3-2.02.89-2.65.59-.63,1.43-.95,2.52-.95s1.91.29,2.5.88c.59.59.89,1.41.89,2.48v1.67c0,2.45-1.08,3.67-3.23,3.67ZM370.78,69.6v-1.32c0-1.74-.71-2.62-2.14-2.62s-2.16.87-2.16,2.62v1.32c0,.85.18,1.5.54,1.95.36.45.9.67,1.6.67,1.44,0,2.16-.87,2.16-2.62Z"/>
    <path class="cls-2" d="M375.92,62.16v10.6c0,.13-.02.21-.07.25-.05.04-.13.06-.26.06h-.58c-.13,0-.21-.02-.26-.06-.05-.04-.07-.13-.07-.25v-10.6c0-.13.02-.21.07-.25.05-.04.13-.06.26-.06h.58c.13,0,.21.02.26.06.05.04.07.13.07.25Z"/>
    <path class="cls-2" d="M384.82,69.32h-5v.3c0,1.73.7,2.6,2.11,2.6.89,0,1.49-.34,1.78-1.02.05-.13.1-.2.14-.23.04-.03.12-.04.22-.04h.57c.15,0,.24.01.28.04.04.03.06.1.06.21,0,.15-.06.34-.17.57-.12.23-.25.43-.39.6-.26.29-.62.53-1.07.69-.45.17-.94.25-1.47.25-1.05,0-1.87-.31-2.44-.93s-.87-1.5-.87-2.65v-1.18c0-1.26.29-2.23.86-2.92.57-.68,1.4-1.02,2.47-1.02,2.17,0,3.25,1.2,3.25,3.61v.8c0,.13-.02.21-.07.25-.05.04-.13.06-.26.06ZM381.9,65.57c-1.38,0-2.07.91-2.08,2.73h4.07c0-.94-.16-1.62-.48-2.07s-.82-.66-1.51-.66Z"/>
  </g>
</svg>