<?xml version="1.0" encoding="UTF-8"?>
<svg id="Layer_1" data-name="Layer 1" xmlns="http://www.w3.org/2000/svg" viewBox="0 0 197.55 173.93">
  <defs>
    <style>
      .cls-1 {
        fill: #76a298;
      }

      .cls-2 {
        fill: #2e6658;
      }
    </style>
  </defs>
  <g>
    <path class="cls-1" d="M125.26,41.65c-.04-.05-.09-.1-.14-.15-.29-.32-.58-.63-.88-.94l-1.85-1.69-33.33,42.09-6.63-15.07c-.47-1.06-1.71-1.54-2.77-1.08l-.95.42c-1.06.47-1.54,1.71-1.08,2.77l10.13,23.02,35-44.2c5.02,6.38,7.88,14.54,7.43,23.36-.91,17.84-15.36,32.22-33.2,33.05-20.56.96-37.5-15.98-36.53-36.54.84-17.89,15.31-32.36,33.2-33.2,7.99-.37,15.43,1.95,21.48,6.15,1.14.79,2.69.56,3.54-.52h0c.93-1.18.69-2.91-.54-3.76-6.73-4.66-14.94-7.33-23.77-7.13-21.19.49-38.49,17.62-39.17,38.81-.75,23.18,18.27,42.2,41.45,41.45,21.21-.69,38.36-18.03,38.81-39.25.23-10.6-3.68-20.3-10.21-27.6Z"/>
    <path class="cls-1" d="M145.24,56.56c.09,6.89.08,14.22.29,21.56.09,3.18.21,6.37.34,9.55.11,2.81.26,5.62.38,8.43.09,2.24-1.25,4.04-3.32,4.48-2.2.47-4.56-1.16-4.95-3.37-.23-1.28.03-2.54.06-3.81.05-1.97.21-3.94.32-5.9.16-2.83.31-5.66.46-8.49.08-1.52.16-3.03.24-4.55.14-2.89.26-5.79.42-8.68.07-1.36-.41-2.51-1.34-3.45-1.06-1.07-1.47-2.37-1.48-3.79-.04-4.17-.15-8.35.02-12.52.2-4.75,1.18-9.37,3.44-13.63.77-1.46,1.86-2.65,3.07-3.74.38-.34.82-.57,1.35-.33.61.28.84.81.84,1.45,0,2.9,0,5.8-.04,8.69-.1,5.88-.06,11.76-.08,18.09ZM144.17,55.13c0-1.82,0-3.64,0-5.46,0-1.86,0-3.71,0-5.57,0-1.86,0-3.71,0-5.57,0-.59,0-1.19,0-1.78,0-2.22.04-4.44.05-6.66,0-.19.04-.45-.09-.61-.2-.25-.47-.03-.63.15-.5.58-.98,1.15-1.39,1.81-.43.68-.8,1.4-1.18,2.12-2.32,4.46-3.08,9.3-3.17,14.25-.07,3.41.03,6.82.01,10.23,0,1.5.41,2.77,1.55,3.79.74.66,1.09,1.54,1.21,2.49.1.79.12,1.6.07,2.4-.08,1.19-.11,2.38-.17,3.57-.09,1.87-.19,3.73-.29,5.6-.15,2.83-.3,5.66-.46,8.49-.1,1.78-.21,3.57-.3,5.35-.11,2.21-.26,4.43-.3,6.64-.03,1.56,1.3,3,2.75,3.16,1.5.17,2.78-.86,3.21-2.53.18-.69,0-1.34-.02-2.01-.17-3.9-.36-7.8-.48-11.7-.14-4.41-.28-8.83-.33-13.25-.02-1.86-.03-3.71-.03-5.57,0-2.1-.01-4.19-.01-6.29,0-1.02,0-2.04,0-3.07Z"/>
    <g>
      <path class="cls-1" d="M55.17,51.04c.17,1.82-.57,3.85-2.13,5.58-.44.49-.95.91-1.44,1.34-1.02.91-1.55,2.05-1.57,3.41-.03,1.67.14,3.32.23,4.98.08,1.66.22,3.32.32,4.98.16,2.52.31,5.04.47,7.56.1,1.6.18,3.2.27,4.8.16,2.56.36,5.12.46,7.68.06,1.68.36,3.36.16,5.04-.24,1.94-2.05,3.67-3.83,3.74-2.51.1-4.27-1.16-4.78-3.41-.31-1.37.02-2.74.05-4.11.04-1.87.21-3.73.32-5.59.16-2.75.32-5.49.47-8.24.1-1.76.18-3.53.27-5.29.15-2.81.24-5.62.46-8.43.09-1.19.14-2.38.15-3.57,0-1.23-.53-2.25-1.37-3.13-.83-.88-1.67-1.76-2.38-2.75-.92-1.28-1.43-2.7-1.44-4.3,0-2.67.22-5.33.34-8,.09-1.97.19-3.94.29-5.91.08-1.74.16-3.49.23-5.23.01-.4.12-.72.56-.71.43.01.55.33.55.74-.04,2.71-.2,5.42-.34,8.13-.1,1.89-.18,3.77-.28,5.66-.06,1.27-.09,2.55-.2,3.81-.2,2.28.35,4.29,1.91,6.02.65.72,1.27,1.45,1.93,2.16,1.13,1.21,1.48,2.71,1.39,4.32-.15,2.73-.3,5.45-.46,8.18-.15,2.66-.31,5.33-.46,7.99-.1,1.82-.18,3.65-.28,5.47-.15,2.58-.31,5.16-.46,7.74-.08,1.37-.17,2.75-.18,4.12-.01,1.62,1.17,3.05,2.58,3.23,1.78.23,3.15-.65,3.69-2.34.17-.54.22-1.08.19-1.64-.24-3.69-.49-7.37-.71-11.06-.15-2.42-.25-4.84-.4-7.25-.18-3.07-.42-6.14-.58-9.22-.1-1.97-.29-3.93-.3-5.9,0-2,.77-3.63,2.32-4.87,2.2-1.75,3.07-4.01,2.8-6.77-.11-1.14-.12-2.3-.17-3.45-.18-4.56-.35-9.11-.52-13.67-.02-.42-.21-1.02.49-1.06.72-.04.6.57.62,1.03.16,3.47.32,6.93.46,10.4.1,2.42.19,4.84.3,7.79Z"/>
      <path class="cls-1" d="M49,40.58v-1.05c0-2.32,0-4.64-.01-6.96,0-.42.09-.79.54-.82.53-.04.6.4.61.81.03,2.28.06,4.56.07,6.84,0,1.39.01,2.78.01,4.18,0,1.39,0,2.78,0,4.18,0,.3,0,.59.01.89,0,.24-.01.51-.21.67-.26.22-.7.14-.91-.11-.17-.21-.11-.55-.11-.8,0-.33,0-.67,0-1,0-1.34.02-2.68.02-4.01v-2.8Z"/>
      <path class="cls-1" d="M44.8,40.51c0-2.7,0-5.41,0-8.11,0-.32.06-.56.4-.68.37-.13.78.02.82.45.01.16,0,.33,0,.49,0,5.28.03,10.56-.12,15.84,0,.04,0,.08,0,.12.01.4-.11.7-.58.69-.44,0-.53-.3-.53-.67,0-1.32.01-2.63.01-3.95,0-1.4,0-2.79,0-4.19Z"/>
    </g>
    <path class="cls-1" d="M114.41,51.16c4.09,4.56,6.58,10.58,6.58,17.18,0,14.2-11.56,25.76-25.76,25.76s-25.76-11.56-25.76-25.76,11.56-25.76,25.76-25.76c6.08,0,11.68,2.12,16.09,5.66l.23-.29c-4.48-3.59-10.15-5.75-16.32-5.75-14.41,0-26.13,11.72-26.13,26.13s11.72,26.13,26.13,26.13,26.13-11.72,26.13-26.13c0-6.72-2.55-12.85-6.73-17.48l-.23.31Z"/>
  </g>
  <g>
    <path class="cls-2" d="M17.47,135.93c.02-.22.08-.37.17-.43s.27-.09.53-.09h1.07c.26,0,.44.04.53.12s.14.23.14.46c0,.81-.14,1.59-.41,2.33-.27.74-.65,1.36-1.14,1.84-1.36,1.34-3.28,2.01-5.75,2.01-1.64,0-3.05-.32-4.22-.96-1.17-.64-2.04-1.63-2.6-2.97-.22-.59-.39-1.25-.49-1.98-.1-.73-.15-1.65-.15-2.77v-4.99c0-1.16.05-2.1.15-2.83.1-.73.26-1.38.49-1.95,1.12-2.8,3.47-4.2,7.06-4.2,2.58,0,4.44.65,5.57,1.95.99,1.08,1.49,2.46,1.49,4.14,0,.22-.05.38-.14.46-.09.08-.27.12-.53.12h-1.13c-.26,0-.44-.04-.53-.11-.09-.07-.15-.21-.17-.41-.2-2.66-1.78-3.99-4.72-3.99-1.77,0-3.05.51-3.85,1.54-.8,1.03-1.2,2.66-1.2,4.92v5.42c0,2.23.4,3.86,1.2,4.89.8,1.03,2.08,1.54,3.82,1.54,2.96,0,4.57-1.35,4.81-4.05Z"/>
    <path class="cls-2" d="M25.63,120.62v20.46c0,.24-.05.41-.14.49-.09.08-.26.12-.5.12h-1.13c-.24,0-.41-.04-.5-.12-.09-.08-.14-.24-.14-.49v-20.46c0-.24.05-.41.14-.49.09-.08.26-.12.5-.12h1.13c.24,0,.41.04.5.12.09.08.14.24.14.49Z"/>
    <path class="cls-2" d="M41.28,134.44h-9.65v.58c0,3.35,1.36,5.02,4.08,5.02,1.72,0,2.87-.66,3.44-1.98.1-.24.19-.39.27-.44.08-.05.22-.08.43-.08h1.1c.28,0,.47.03.55.08.08.05.12.19.12.41,0,.28-.11.65-.33,1.1-.22.45-.48.83-.76,1.16-.51.57-1.2,1.02-2.07,1.34-.87.32-1.82.49-2.83.49-2.03,0-3.6-.6-4.72-1.8-1.12-1.2-1.67-2.9-1.67-5.12v-2.28c0-2.44.55-4.31,1.66-5.63,1.11-1.32,2.69-1.98,4.77-1.98,4.18,0,6.27,2.32,6.27,6.97v1.55c0,.24-.05.41-.14.49-.09.08-.26.12-.5.12ZM35.64,127.19c-2.66,0-4,1.76-4.02,5.27h7.86c0-1.81-.31-3.14-.93-3.99-.62-.85-1.59-1.28-2.91-1.28Z"/>
    <path class="cls-2" d="M51.11,131.94c.41,0,.92.02,1.55.06.63.04,1.26.1,1.89.18v-1.8c0-1.12-.26-1.92-.78-2.42-.52-.5-1.37-.75-2.54-.75-.93,0-1.65.14-2.16.41-.51.27-.9.75-1.19,1.42-.08.2-.16.34-.23.41s-.23.11-.47.11h-1.1c-.26,0-.44-.04-.53-.12-.09-.08-.14-.23-.14-.46,0-.28.08-.6.24-.94.16-.34.37-.65.61-.91.53-.61,1.19-1.07,1.99-1.37.8-.3,1.79-.46,2.97-.46,2.03,0,3.49.39,4.38,1.17.89.78,1.34,2.07,1.34,3.85v6.24c0,1.83-.46,3.19-1.39,4.08-.92.89-2.38,1.34-4.37,1.34h-.46c-2.05,0-3.57-.39-4.57-1.16-.99-.77-1.49-2-1.49-3.68,0-1.81.52-3.13,1.57-3.96,1.05-.83,2.66-1.25,4.86-1.25ZM51.29,133.95c-1.56,0-2.64.24-3.24.73-.6.49-.9,1.3-.9,2.44,0,.99.28,1.72.85,2.16.57.45,1.54.67,2.92.67h.27c1.2,0,2.06-.29,2.57-.87.52-.58.78-1.51.78-2.79v-2.07c-.61-.08-1.21-.15-1.81-.2-.6-.05-1.08-.08-1.45-.08Z"/>
    <path class="cls-2" d="M63.2,126.34v2.31c.39-.87.97-1.58,1.75-2.12.78-.54,1.66-.81,2.63-.81h.4c.22,0,.37.04.43.12s.09.24.09.49v1.1c0,.24-.03.41-.09.49-.06.08-.2.12-.43.12h-.79c-1.2,0-2.15.5-2.86,1.51-.71,1-1.07,2.26-1.07,3.76v7.76c0,.24-.05.41-.14.49-.09.08-.26.12-.5.12h-1.13c-.24,0-.41-.04-.5-.12-.09-.08-.14-.24-.14-.49v-14.74c0-.24.05-.41.14-.49.09-.08.26-.12.5-.12h1.07c.24,0,.41.04.5.12.09.08.14.24.14.49Z"/>
    <path class="cls-2" d="M87.01,135.23h-1.19c-.24,0-.42-.04-.53-.11-.11-.07-.22-.23-.32-.47l-4.84-10.41v16.84c0,.24-.05.41-.14.49-.09.08-.26.12-.5.12h-1.1c-.24,0-.41-.04-.5-.12-.09-.08-.14-.24-.14-.49v-20.46c0-.24.05-.41.14-.49.09-.08.26-.12.5-.12h1.67c.24,0,.42.04.53.11.11.07.22.23.32.47l5.54,12.06,5.69-12.06c.1-.24.21-.4.32-.47.11-.07.29-.11.53-.11h1.55c.24,0,.41.04.5.12s.14.24.14.49v20.46c0,.24-.05.41-.14.49-.09.08-.26.12-.5.12h-1.1c-.24,0-.41-.04-.5-.12-.09-.08-.14-.24-.14-.49v-16.84l-4.96,10.41c-.1.24-.21.4-.32.47-.11.07-.29.11-.53.11Z"/>
    <path class="cls-2" d="M99.71,144.76h.37c.83,0,1.48-.16,1.95-.47s.87-.98,1.22-1.99l.37-1.07-5.6-14.77c-.06-.18-.09-.3-.09-.37,0-.24.16-.37.49-.37h1.34c.2,0,.35.04.44.12s.18.25.26.52l4.35,11.75,4.05-11.75c.1-.26.19-.44.27-.52.08-.08.22-.12.43-.12h1.28c.32,0,.49.12.49.37,0,.06-.03.18-.09.37l-5.72,16.02c-.43,1.24-.88,2.17-1.37,2.8-.49.63-1.03,1.06-1.63,1.28-.6.22-1.29.33-2.09.33h-.7c-.2,0-.34-.04-.41-.12-.07-.08-.11-.24-.11-.49v-.91c0-.24.04-.41.11-.49.07-.08.21-.12.41-.12Z"/>
    <path class="cls-2" d="M126.93,133.13h-4.2v7.95c0,.24-.05.41-.14.49-.09.08-.26.12-.5.12h-1.1c-.24,0-.41-.04-.5-.12-.09-.08-.14-.24-.14-.49v-20.46c0-.24.05-.41.14-.49.09-.08.26-.12.5-.12h5.94c2.42,0,4.18.51,5.28,1.52,1.11,1.02,1.66,2.62,1.66,4.81v.61c0,4.12-2.31,6.18-6.94,6.18ZM122.72,122.08v8.98h4.29c1.56,0,2.67-.31,3.33-.94s.99-1.68.99-3.17v-.49c0-1.62-.32-2.76-.97-3.41-.65-.65-1.77-.97-3.35-.97h-4.29Z"/>
    <path class="cls-2" d="M139.53,120.62v20.46c0,.24-.05.41-.14.49-.09.08-.26.12-.5.12h-1.13c-.24,0-.41-.04-.5-.12-.09-.08-.14-.24-.14-.49v-20.46c0-.24.05-.41.14-.49.09-.08.26-.12.5-.12h1.13c.24,0,.41.04.5.12.09.08.14.24.14.49Z"/>
    <path class="cls-2" d="M149.4,131.94c.41,0,.92.02,1.55.06.63.04,1.26.1,1.89.18v-1.8c0-1.12-.26-1.92-.78-2.42-.52-.5-1.37-.75-2.54-.75-.93,0-1.65.14-2.16.41-.51.27-.9.75-1.19,1.42-.08.2-.16.34-.23.41s-.23.11-.47.11h-1.1c-.26,0-.44-.04-.53-.12-.09-.08-.14-.23-.14-.46,0-.28.08-.6.24-.94.16-.34.37-.65.61-.91.53-.61,1.19-1.07,1.99-1.37.8-.3,1.79-.46,2.97-.46,2.03,0,3.49.39,4.38,1.17.89.78,1.34,2.07,1.34,3.85v6.24c0,1.83-.46,3.19-1.39,4.08-.92.89-2.38,1.34-4.37,1.34h-.46c-2.05,0-3.57-.39-4.57-1.16-.99-.77-1.49-2-1.49-3.68,0-1.81.52-3.13,1.57-3.96,1.05-.83,2.66-1.25,4.86-1.25ZM149.58,133.95c-1.56,0-2.64.24-3.24.73-.6.49-.9,1.3-.9,2.44,0,.99.28,1.72.85,2.16.57.45,1.54.67,2.92.67h.27c1.2,0,2.06-.29,2.57-.87.52-.58.78-1.51.78-2.79v-2.07c-.61-.08-1.21-.15-1.81-.2-.6-.05-1.08-.08-1.45-.08Z"/>
    <path class="cls-2" d="M165.47,141.69h-1.64c-1.36,0-2.36-.32-3-.97-.64-.65-.96-1.67-.96-3.08v-9.9h-1.98c-.2,0-.34-.04-.41-.12s-.11-.24-.11-.49v-.79c0-.24.04-.41.11-.49s.21-.12.41-.12h1.98v-3.87c0-.24.05-.41.14-.49.09-.08.26-.12.5-.12h1.13c.24,0,.41.04.5.12.09.08.14.24.14.49v3.87h3.14c.22,0,.37.04.43.12s.09.24.09.49v.79c0,.24-.03.41-.09.49s-.2.12-.43.12h-3.14v9.5c0,.81.14,1.4.41,1.77.27.37.73.55,1.36.55h1.43c.22,0,.37.04.43.12.06.08.09.24.09.49v.91c0,.24-.03.41-.09.49-.06.08-.2.12-.43.12Z"/>
    <path class="cls-2" d="M180.33,134.44h-9.65v.58c0,3.35,1.36,5.02,4.08,5.02,1.72,0,2.87-.66,3.44-1.98.1-.24.19-.39.27-.44.08-.05.22-.08.43-.08h1.1c.28,0,.47.03.55.08.08.05.12.19.12.41,0,.28-.11.65-.33,1.1-.22.45-.48.83-.76,1.16-.51.57-1.2,1.02-2.07,1.34-.87.32-1.82.49-2.83.49-2.03,0-3.6-.6-4.72-1.8-1.12-1.2-1.67-2.9-1.67-5.12v-2.28c0-2.44.55-4.31,1.66-5.63,1.11-1.32,2.69-1.98,4.77-1.98,4.18,0,6.27,2.32,6.27,6.97v1.55c0,.24-.05.41-.14.49-.09.08-.26.12-.5.12ZM174.7,127.19c-2.66,0-4,1.76-4.02,5.27h7.86c0-1.81-.31-3.14-.93-3.99-.62-.85-1.59-1.28-2.91-1.28Z"/>
  </g>
  <g>
    <path class="cls-2" d="M11.02,149.28v7.2c0,.09-.02.14-.05.17-.03.03-.09.04-.18.04h-.41c-.09,0-.14-.01-.18-.04-.03-.03-.05-.09-.05-.17v-3.45h-3.54v3.45c0,.09-.02.14-.05.17-.03.03-.09.04-.18.04h-.41c-.09,0-.14-.01-.18-.04-.03-.03-.05-.09-.05-.17v-7.2c0-.09.02-.14.05-.17.03-.03.09-.04.18-.04h.41c.09,0,.14.01.18.04.03.03.05.09.05.17v3h3.54v-3c0-.09.02-.14.05-.17.03-.03.09-.04.18-.04h.41c.09,0,.14.01.18.04.03.03.05.09.05.17Z"/>
    <path class="cls-2" d="M17.14,154.15h-3.4v.2c0,1.18.48,1.77,1.44,1.77.61,0,1.01-.23,1.21-.7.04-.09.07-.14.1-.16.03-.02.08-.03.15-.03h.39c.1,0,.16,0,.19.03.03.02.04.07.04.14,0,.1-.04.23-.12.39-.08.16-.17.29-.27.41-.18.2-.42.36-.73.47-.31.11-.64.17-1,.17-.71,0-1.27-.21-1.66-.63s-.59-1.02-.59-1.8v-.8c0-.86.19-1.52.58-1.98.39-.47.95-.7,1.68-.7,1.47,0,2.21.82,2.21,2.45v.55c0,.09-.02.14-.05.17-.03.03-.09.04-.18.04ZM15.15,151.6c-.94,0-1.41.62-1.42,1.86h2.77c0-.64-.11-1.1-.33-1.41-.22-.3-.56-.45-1.02-.45Z"/>
    <path class="cls-2" d="M21.14,153.27c.14,0,.33,0,.55.02s.44.04.66.06v-.63c0-.39-.09-.68-.27-.85-.18-.17-.48-.26-.9-.26-.33,0-.58.05-.76.15-.18.1-.32.26-.42.5-.03.07-.06.12-.08.14-.03.03-.08.04-.17.04h-.39c-.09,0-.16-.01-.19-.04-.03-.03-.05-.08-.05-.16,0-.1.03-.21.09-.33.06-.12.13-.23.21-.32.19-.21.42-.37.7-.48.28-.11.63-.16,1.05-.16.71,0,1.23.14,1.54.41.31.28.47.73.47,1.36v2.2c0,.64-.16,1.12-.49,1.44-.33.31-.84.47-1.54.47h-.16c-.72,0-1.26-.14-1.61-.41-.35-.27-.53-.7-.53-1.3,0-.64.18-1.1.55-1.39.37-.29.94-.44,1.71-.44ZM21.2,153.98c-.55,0-.93.09-1.14.26-.21.17-.32.46-.32.86,0,.35.1.6.3.76s.54.24,1.03.24h.1c.42,0,.72-.1.91-.31.18-.2.27-.53.27-.98v-.73c-.21-.03-.43-.05-.64-.07-.21-.02-.38-.03-.51-.03Z"/>
    <path class="cls-2" d="M25.95,149.28v7.2c0,.09-.02.14-.05.17-.03.03-.09.04-.18.04h-.4c-.09,0-.14-.01-.18-.04-.03-.03-.05-.09-.05-.17v-7.2c0-.09.02-.14.05-.17.03-.03.09-.04.18-.04h.4c.09,0,.14.01.18.04.03.03.05.09.05.17Z"/>
    <path class="cls-2" d="M30.3,156.7h-.58c-.48,0-.83-.11-1.06-.34s-.34-.59-.34-1.08v-3.48h-.7c-.07,0-.12-.01-.14-.04-.03-.03-.04-.09-.04-.17v-.28c0-.09.01-.14.04-.17.02-.03.07-.04.14-.04h.7v-1.36c0-.09.02-.14.05-.17.03-.03.09-.04.18-.04h.4c.09,0,.14.01.18.04.03.03.05.09.05.17v1.36h1.1c.08,0,.13.01.15.04s.03.09.03.17v.28c0,.09-.01.14-.03.17-.02.03-.07.04-.15.04h-1.1v3.35c0,.29.05.49.14.62.1.13.26.19.48.19h.5c.08,0,.13.01.15.04s.03.09.03.17v.32c0,.09-.01.14-.03.17s-.07.04-.15.04Z"/>
    <path class="cls-2" d="M32.99,149.28v2.37c.38-.48.92-.72,1.63-.72.59,0,1.05.16,1.37.48.32.32.48.79.48,1.4v3.67c0,.09-.02.14-.05.17-.03.03-.09.04-.18.04h-.4c-.09,0-.14-.01-.18-.04-.03-.03-.05-.09-.05-.17v-3.48c0-.46-.1-.79-.29-1-.2-.21-.51-.32-.93-.32s-.76.14-1.02.41c-.26.28-.39.64-.39,1.1v3.29c0,.09-.02.14-.05.17-.03.03-.09.04-.18.04h-.4c-.09,0-.14-.01-.18-.04-.03-.03-.05-.09-.05-.17v-7.2c0-.09.02-.14.05-.17.03-.03.09-.04.18-.04h.4c.09,0,.14.01.18.04.03.03.05.09.05.17Z"/>
    <path class="cls-2" d="M38.46,157.78h.13c.29,0,.52-.06.69-.17s.31-.34.43-.7l.13-.38-1.97-5.2c-.02-.06-.03-.11-.03-.13,0-.09.06-.13.17-.13h.47c.07,0,.12.01.16.04.03.03.06.09.09.18l1.53,4.14,1.43-4.14c.04-.09.07-.15.1-.18s.08-.04.15-.04h.45c.11,0,.17.04.17.13,0,.02-.01.06-.03.13l-2.02,5.64c-.15.44-.31.77-.48.99s-.36.37-.57.45c-.21.08-.46.12-.73.12h-.25c-.07,0-.12-.01-.14-.04-.03-.03-.04-.09-.04-.17v-.32c0-.09.01-.14.04-.17.02-.03.07-.04.14-.04Z"/>
    <path class="cls-2" d="M50.06,154.43h-.42c-.09,0-.15-.01-.19-.04-.04-.02-.08-.08-.11-.17l-1.7-3.67v5.93c0,.09-.02.14-.05.17-.03.03-.09.04-.18.04h-.39c-.09,0-.14-.01-.18-.04-.03-.03-.05-.09-.05-.17v-7.2c0-.09.02-.14.05-.17.03-.03.09-.04.18-.04h.59c.09,0,.15.01.19.04.04.02.08.08.11.17l1.95,4.25,2-4.25c.04-.09.07-.14.11-.17s.1-.04.19-.04h.55c.09,0,.14.01.18.04.03.03.05.09.05.17v7.2c0,.09-.02.14-.05.17-.03.03-.09.04-.18.04h-.39c-.09,0-.14-.01-.18-.04s-.05-.09-.05-.17v-5.93l-1.75,3.67c-.04.09-.07.14-.11.17-.04.02-.1.04-.19.04Z"/>
    <path class="cls-2" d="M59.07,154.15h-3.4v.2c0,1.18.48,1.77,1.44,1.77.61,0,1.01-.23,1.21-.7.04-.09.07-.14.1-.16.03-.02.08-.03.15-.03h.39c.1,0,.16,0,.19.03.03.02.04.07.04.14,0,.1-.04.23-.12.39-.08.16-.17.29-.27.41-.18.2-.42.36-.73.47-.31.11-.64.17-1,.17-.71,0-1.27-.21-1.66-.63s-.59-1.02-.59-1.8v-.8c0-.86.19-1.52.58-1.98.39-.47.95-.7,1.68-.7,1.47,0,2.21.82,2.21,2.45v.55c0,.09-.02.14-.05.17-.03.03-.09.04-.18.04ZM57.08,151.6c-.94,0-1.41.62-1.42,1.86h2.77c0-.64-.11-1.1-.33-1.41-.22-.3-.56-.45-1.02-.45Z"/>
    <path class="cls-2" d="M63.07,153.27c.14,0,.33,0,.55.02s.44.04.66.06v-.63c0-.39-.09-.68-.27-.85-.18-.17-.48-.26-.9-.26-.33,0-.58.05-.76.15-.18.1-.32.26-.42.5-.03.07-.06.12-.08.14-.03.03-.08.04-.17.04h-.39c-.09,0-.16-.01-.19-.04-.03-.03-.05-.08-.05-.16,0-.1.03-.21.09-.33.06-.12.13-.23.21-.32.19-.21.42-.37.7-.48.28-.11.63-.16,1.05-.16.71,0,1.23.14,1.54.41.31.28.47.73.47,1.36v2.2c0,.64-.16,1.12-.49,1.44-.33.31-.84.47-1.54.47h-.16c-.72,0-1.26-.14-1.61-.41-.35-.27-.53-.7-.53-1.3,0-.64.18-1.1.55-1.39.37-.29.94-.44,1.71-.44ZM63.13,153.98c-.55,0-.93.09-1.14.26-.21.17-.32.46-.32.86,0,.35.1.6.3.76s.54.24,1.03.24h.1c.42,0,.72-.1.91-.31.18-.2.27-.53.27-.98v-.73c-.21-.03-.43-.05-.64-.07-.21-.02-.38-.03-.51-.03Z"/>
    <path class="cls-2" d="M67.88,149.28v7.2c0,.09-.02.14-.05.17-.03.03-.09.04-.18.04h-.4c-.09,0-.14-.01-.18-.04-.03-.03-.05-.09-.05-.17v-7.2c0-.09.02-.14.05-.17.03-.03.09-.04.18-.04h.4c.09,0,.14.01.18.04.03.03.05.09.05.17Z"/>
    <path class="cls-2" d="M75.05,153.69h-1.48v2.8c0,.09-.02.14-.05.17-.03.03-.09.04-.18.04h-.39c-.09,0-.14-.01-.18-.04-.03-.03-.05-.09-.05-.17v-7.2c0-.09.02-.14.05-.17.03-.03.09-.04.18-.04h2.09c.85,0,1.47.18,1.86.54.39.36.58.92.58,1.69v.21c0,1.45-.82,2.18-2.44,2.18ZM73.57,149.8v3.16h1.51c.55,0,.94-.11,1.17-.33.23-.22.35-.59.35-1.12v-.17c0-.57-.11-.97-.34-1.2s-.62-.34-1.18-.34h-1.51Z"/>
    <path class="cls-2" d="M80.03,149.28v7.2c0,.09-.02.14-.05.17-.03.03-.09.04-.18.04h-.4c-.09,0-.14-.01-.18-.04-.03-.03-.05-.09-.05-.17v-7.2c0-.09.02-.14.05-.17.03-.03.09-.04.18-.04h.4c.09,0,.14.01.18.04.03.03.05.09.05.17Z"/>
    <path class="cls-2" d="M84.04,153.27c.14,0,.33,0,.55.02s.44.04.66.06v-.63c0-.39-.09-.68-.27-.85-.18-.17-.48-.26-.9-.26-.33,0-.58.05-.76.15-.18.1-.32.26-.42.5-.03.07-.06.12-.08.14-.03.03-.08.04-.17.04h-.39c-.09,0-.16-.01-.19-.04-.03-.03-.05-.08-.05-.16,0-.1.03-.21.09-.33.06-.12.13-.23.21-.32.19-.21.42-.37.7-.48.28-.11.63-.16,1.05-.16.71,0,1.23.14,1.54.41.31.28.47.73.47,1.36v2.2c0,.64-.16,1.12-.49,1.44-.33.31-.84.47-1.54.47h-.16c-.72,0-1.26-.14-1.61-.41-.35-.27-.53-.7-.53-1.3,0-.64.18-1.1.55-1.39.37-.29.94-.44,1.71-.44ZM84.1,153.98c-.55,0-.93.09-1.14.26-.21.17-.32.46-.32.86,0,.35.1.6.3.76s.54.24,1.03.24h.1c.42,0,.72-.1.91-.31.18-.2.27-.53.27-.98v-.73c-.21-.03-.43-.05-.64-.07-.21-.02-.38-.03-.51-.03Z"/>
    <path class="cls-2" d="M90.48,150.93c.59,0,1.05.16,1.37.48.32.32.48.79.48,1.4v3.67c0,.09-.02.14-.05.17-.03.03-.09.04-.18.04h-.4c-.09,0-.14-.01-.18-.04-.03-.03-.05-.09-.05-.17v-3.48c0-.46-.1-.79-.29-1-.2-.21-.51-.32-.93-.32s-.76.14-1.02.41c-.26.28-.39.64-.39,1.1v3.29c0,.09-.02.14-.05.17-.03.03-.09.04-.18.04h-.4c-.09,0-.14-.01-.18-.04-.03-.03-.05-.09-.05-.17v-5.19c0-.09.02-.14.05-.17.03-.03.09-.04.18-.04h.38c.09,0,.14.01.18.04.03.03.05.09.05.17v.38c.37-.49.92-.74,1.65-.74Z"/>
    <path class="cls-2" d="M96.76,150.93c.59,0,1.05.16,1.37.48.32.32.48.79.48,1.4v3.67c0,.09-.02.14-.05.17-.03.03-.09.04-.18.04h-.4c-.09,0-.14-.01-.18-.04-.03-.03-.05-.09-.05-.17v-3.48c0-.46-.1-.79-.29-1-.2-.21-.51-.32-.93-.32s-.76.14-1.02.41c-.26.28-.39.64-.39,1.1v3.29c0,.09-.02.14-.05.17-.03.03-.09.04-.18.04h-.4c-.09,0-.14-.01-.18-.04-.03-.03-.05-.09-.05-.17v-5.19c0-.09.02-.14.05-.17.03-.03.09-.04.18-.04h.38c.09,0,.14.01.18.04.03.03.05.09.05.17v.38c.37-.49.92-.74,1.65-.74Z"/>
    <path class="cls-2" d="M101,150.08c-.16,0-.3-.04-.39-.13-.1-.09-.14-.2-.14-.35v-.17c0-.14.05-.26.14-.34.1-.09.23-.13.39-.13s.31.04.41.13.15.2.15.34v.17c0,.15-.05.27-.15.35s-.24.13-.41.13ZM101.42,151.3v5.19c0,.09-.02.14-.05.17-.03.03-.09.04-.18.04h-.4c-.09,0-.14-.01-.18-.04-.03-.03-.05-.09-.05-.17v-5.19c0-.09.02-.14.05-.17.03-.03.09-.04.18-.04h.4c.09,0,.14.01.18.04.03.03.05.09.05.17Z"/>
    <path class="cls-2" d="M105.91,150.93c.59,0,1.05.16,1.37.48.32.32.48.79.48,1.4v3.67c0,.09-.02.14-.05.17-.03.03-.09.04-.18.04h-.4c-.09,0-.14-.01-.18-.04-.03-.03-.05-.09-.05-.17v-3.48c0-.46-.1-.79-.29-1-.2-.21-.51-.32-.93-.32s-.76.14-1.02.41c-.26.28-.39.64-.39,1.1v3.29c0,.09-.02.14-.05.17-.03.03-.09.04-.18.04h-.4c-.09,0-.14-.01-.18-.04-.03-.03-.05-.09-.05-.17v-5.19c0-.09.02-.14.05-.17.03-.03.09-.04.18-.04h.38c.09,0,.14.01.18.04.03.03.05.09.05.17v.38c.37-.49.92-.74,1.65-.74Z"/>
    <path class="cls-2" d="M110.64,157.49c.15.33.53.49,1.14.49.51,0,.88-.1,1.1-.3.25-.23.38-.59.38-1.07v-.5c-.36.42-.88.63-1.57.63s-1.24-.2-1.62-.61c-.38-.4-.57-.98-.57-1.73v-1.03c0-.77.2-1.37.6-1.8.4-.43.96-.64,1.69-.64s1.3.2,1.7.61c.4.41.61.98.61,1.73v3.3c0,.54-.09.97-.28,1.28-.19.31-.46.52-.8.65s-.76.19-1.25.19c-.59,0-1.08-.11-1.45-.34s-.56-.51-.56-.86c0-.08.01-.13.04-.14.03-.02.09-.03.19-.03h.41c.08,0,.13,0,.16.03.02.02.06.07.09.16ZM110.35,153.44v.79c0,1.19.49,1.78,1.46,1.78s1.45-.59,1.45-1.78v-.79c0-1.19-.49-1.78-1.46-1.78s-1.45.59-1.45,1.78Z"/>
    <path class="cls-2" d="M122.11,154.43h-.42c-.09,0-.15-.01-.19-.04-.04-.02-.08-.08-.11-.17l-1.7-3.67v5.93c0,.09-.02.14-.05.17-.03.03-.09.04-.18.04h-.39c-.09,0-.14-.01-.18-.04-.03-.03-.05-.09-.05-.17v-7.2c0-.09.02-.14.05-.17.03-.03.09-.04.18-.04h.59c.09,0,.15.01.19.04.04.02.08.08.11.17l1.95,4.25,2-4.25c.04-.09.07-.14.11-.17s.1-.04.19-.04h.55c.09,0,.14.01.18.04.03.03.05.09.05.17v7.2c0,.09-.02.14-.05.17-.03.03-.09.04-.18.04h-.39c-.09,0-.14-.01-.18-.04s-.05-.09-.05-.17v-5.93l-1.75,3.67c-.04.09-.07.14-.11.17-.04.02-.1.04-.19.04Z"/>
    <path class="cls-2" d="M129.08,153.27c.14,0,.33,0,.55.02s.44.04.66.06v-.63c0-.39-.09-.68-.27-.85-.18-.17-.48-.26-.9-.26-.33,0-.58.05-.76.15-.18.1-.32.26-.42.5-.03.07-.06.12-.08.14-.03.03-.08.04-.17.04h-.39c-.09,0-.16-.01-.19-.04-.03-.03-.05-.08-.05-.16,0-.1.03-.21.09-.33.06-.12.13-.23.21-.32.19-.21.42-.37.7-.48.28-.11.63-.16,1.05-.16.71,0,1.23.14,1.54.41.31.28.47.73.47,1.36v2.2c0,.64-.16,1.12-.49,1.44-.33.31-.84.47-1.54.47h-.16c-.72,0-1.26-.14-1.61-.41-.35-.27-.53-.7-.53-1.3,0-.64.18-1.1.55-1.39.37-.29.94-.44,1.71-.44ZM129.14,153.98c-.55,0-.93.09-1.14.26-.21.17-.32.46-.32.86,0,.35.1.6.3.76s.54.24,1.03.24h.1c.42,0,.72-.1.91-.31.18-.2.27-.53.27-.98v-.73c-.21-.03-.43-.05-.64-.07-.21-.02-.38-.03-.51-.03Z"/>
    <path class="cls-2" d="M135.03,150.93c.69,0,1.22.22,1.58.66v-2.32c0-.09.02-.14.05-.17.03-.03.09-.04.18-.04h.4c.09,0,.14.01.18.04.03.03.05.09.05.17v5.12c0,.77-.2,1.37-.61,1.8s-.97.64-1.71.64-1.3-.2-1.7-.6-.61-.96-.61-1.68v-1.19c0-.76.19-1.36.58-1.8.39-.43.93-.65,1.61-.65ZM133.68,153.44v.9c0,1.19.49,1.78,1.46,1.78s1.47-.59,1.47-1.78v-.9c0-1.19-.49-1.78-1.46-1.78s-1.47.59-1.47,1.78Z"/>
    <path class="cls-2" d="M143.39,154.15h-3.4v.2c0,1.18.48,1.77,1.44,1.77.61,0,1.01-.23,1.21-.7.04-.09.07-.14.1-.16.03-.02.08-.03.15-.03h.39c.1,0,.16,0,.19.03.03.02.04.07.04.14,0,.1-.04.23-.12.39-.08.16-.17.29-.27.41-.18.2-.42.36-.73.47-.31.11-.64.17-1,.17-.71,0-1.27-.21-1.66-.63s-.59-1.02-.59-1.8v-.8c0-.86.19-1.52.58-1.98.39-.47.95-.7,1.68-.7,1.47,0,2.21.82,2.21,2.45v.55c0,.09-.02.14-.05.17-.03.03-.09.04-.18.04ZM141.41,151.6c-.94,0-1.41.62-1.42,1.86h2.77c0-.64-.11-1.1-.33-1.41-.22-.3-.56-.45-1.02-.45Z"/>
    <path class="cls-2" d="M148.69,155.04c.08.35.26.62.55.8s.66.27,1.11.27c.49,0,.88-.12,1.15-.35.27-.23.41-.56.41-.99,0-.67-.35-1.12-1.06-1.36l-1.38-.46c-1.01-.34-1.51-.98-1.51-1.91v-.05c0-.66.22-1.17.65-1.54.44-.37,1.05-.55,1.83-.55.44,0,.82.06,1.13.17.31.11.56.3.76.55.11.14.21.3.28.49.07.19.11.37.11.54,0,.08-.02.13-.05.16-.03.03-.09.04-.19.04h-.38c-.09,0-.15-.01-.18-.04s-.05-.07-.06-.14c-.11-.69-.61-1.04-1.5-1.04-.48,0-.86.11-1.13.34s-.41.55-.41.95c0,.35.08.62.25.81.17.19.47.36.92.5l1.38.46c.46.16.82.41,1.07.75.25.34.37.76.37,1.24v.05c0,.65-.22,1.17-.65,1.55-.44.39-1.02.58-1.76.58-.89,0-1.56-.21-1.99-.62-.16-.15-.29-.34-.4-.57-.11-.23-.16-.44-.16-.62,0-.08.02-.13.05-.16.03-.03.09-.04.19-.04h.38c.09,0,.14.01.18.03.03.02.06.07.07.15Z"/>
    <path class="cls-2" d="M154.96,150.08c-.16,0-.3-.04-.39-.13-.1-.09-.14-.2-.14-.35v-.17c0-.14.05-.26.14-.34.1-.09.23-.13.39-.13s.31.04.41.13.15.2.15.34v.17c0,.15-.05.27-.15.35s-.24.13-.41.13ZM155.38,151.3v5.19c0,.09-.02.14-.05.17-.03.03-.09.04-.18.04h-.4c-.09,0-.14-.01-.18-.04-.03-.03-.05-.09-.05-.17v-5.19c0-.09.02-.14.05-.17.03-.03.09-.04.18-.04h.4c.09,0,.14.01.18.04.03.03.05.09.05.17Z"/>
    <path class="cls-2" d="M163.17,150.93c.57,0,1.01.16,1.32.48.31.32.46.79.46,1.4v3.67c0,.09-.02.14-.05.17-.03.03-.09.04-.18.04h-.4c-.09,0-.14-.01-.18-.04s-.05-.09-.05-.17v-3.48c0-.46-.09-.79-.28-1s-.48-.32-.88-.32-.73.14-.98.41c-.25.27-.37.64-.37,1.1v3.29c0,.09-.02.14-.05.17-.03.03-.09.04-.18.04h-.4c-.09,0-.14-.01-.18-.04-.03-.03-.05-.09-.05-.17v-3.48c0-.46-.09-.79-.28-1s-.48-.32-.88-.32-.73.14-.98.41c-.25.27-.37.64-.37,1.1v3.29c0,.09-.02.14-.05.17-.03.03-.09.04-.18.04h-.4c-.09,0-.14-.01-.18-.04-.03-.03-.05-.09-.05-.17v-5.19c0-.09.02-.14.05-.17.03-.03.09-.04.18-.04h.38c.09,0,.14.01.18.04.03.03.05.09.05.17v.38c.36-.49.89-.74,1.6-.74.78,0,1.31.29,1.59.88.23-.31.48-.54.76-.68.28-.14.61-.2,1.01-.2Z"/>
    <path class="cls-2" d="M169.23,156.85c-.71,0-1.23-.22-1.58-.66v2.13c0,.09-.02.14-.05.17-.03.03-.09.04-.18.04h-.4c-.09,0-.14-.01-.18-.04-.03-.03-.05-.09-.05-.17v-4.94c0-.77.2-1.37.61-1.8.4-.43.97-.64,1.71-.64s1.3.2,1.7.6c.4.4.61.96.61,1.68v1.14c0,1.67-.73,2.5-2.2,2.5ZM170.58,154.34v-.9c0-1.19-.49-1.78-1.46-1.78s-1.47.59-1.47,1.78v.9c0,.58.12,1.02.37,1.32.25.3.61.46,1.09.46.98,0,1.47-.59,1.47-1.78Z"/>
    <path class="cls-2" d="M174.07,149.28v7.2c0,.09-.02.14-.05.17-.03.03-.09.04-.18.04h-.4c-.09,0-.14-.01-.18-.04-.03-.03-.05-.09-.05-.17v-7.2c0-.09.02-.14.05-.17.03-.03.09-.04.18-.04h.4c.09,0,.14.01.18.04.03.03.05.09.05.17Z"/>
    <path class="cls-2" d="M180.12,154.15h-3.4v.2c0,1.18.48,1.77,1.44,1.77.61,0,1.01-.23,1.21-.7.04-.09.07-.14.1-.16.03-.02.08-.03.15-.03h.39c.1,0,.16,0,.19.03.03.02.04.07.04.14,0,.1-.04.23-.12.39-.08.16-.17.29-.27.41-.18.2-.42.36-.73.47-.31.11-.64.17-1,.17-.71,0-1.27-.21-1.66-.63s-.59-1.02-.59-1.8v-.8c0-.86.19-1.52.58-1.98.39-.47.95-.7,1.68-.7,1.47,0,2.21.82,2.21,2.45v.55c0,.09-.02.14-.05.17-.03.03-.09.04-.18.04ZM178.14,151.6c-.94,0-1.41.62-1.42,1.86h2.77c0-.64-.11-1.1-.33-1.41-.22-.3-.56-.45-1.02-.45Z"/>
  </g>
</svg>