<?xml version="1.0" encoding="UTF-8"?>
<svg id="Layer_1" data-name="Layer 1" xmlns="http://www.w3.org/2000/svg" viewBox="0 0 1024 1024">
  <defs>
    <style>
      .cls-1 {
        fill: #76a298;
      }
    </style>
  </defs>
  <path class="cls-1" d="M778.39,290.87c-.37-.42-.74-.83-1.12-1.24-2.38-2.63-4.78-5.24-7.24-7.8l-15.3-13.95-275.73,348.2-54.82-124.64c-3.86-8.78-14.11-12.76-22.88-8.9l-7.86,3.46c-8.78,3.86-12.76,14.11-8.9,22.88l83.77,190.47,289.52-365.61c41.54,52.77,65.17,120.26,61.44,193.28-7.53,147.54-127.09,266.58-274.67,273.45-170.09,7.92-310.18-132.21-302.2-302.31,6.95-147.98,126.66-267.68,274.65-274.62,66.08-3.1,127.62,16.16,177.73,50.84,9.41,6.51,22.23,4.65,29.33-4.32h0c7.71-9.73,5.75-24.05-4.45-31.12-55.64-38.59-123.58-60.64-196.65-58.94-175.28,4.07-318.38,145.8-324.06,321.04-6.21,191.78,151.12,349.11,342.9,342.89,175.49-5.69,317.31-149.18,321.04-324.73,1.87-87.67-30.46-167.9-84.5-228.32Z"/>
  <path class="cls-1" d="M943.69,414.26c.71,56.97.64,117.67,2.43,178.35.78,26.33,1.74,52.66,2.79,78.98.93,23.26,2.18,46.5,3.14,69.76.76,18.5-10.37,33.39-27.43,37.05-18.2,3.9-37.76-9.6-40.98-27.85-1.87-10.58.21-21,.48-31.48.41-16.29,1.76-32.56,2.66-48.84,1.29-23.4,2.55-46.81,3.8-70.22.67-12.55,1.36-25.11,1.97-37.66,1.16-23.93,2.16-47.86,3.46-71.78.61-11.28-3.4-20.77-11.06-28.5-8.74-8.82-12.17-19.57-12.27-31.36-.31-34.52-1.28-69.08.14-103.55,1.62-39.34,9.78-77.49,28.43-112.77,6.37-12.04,15.39-21.89,25.39-30.92,3.11-2.81,6.81-4.75,11.15-2.77,5.07,2.32,6.94,6.72,6.93,12-.07,23.98.06,47.96-.36,71.93-.86,48.63-.5,97.26-.68,149.62ZM934.88,402.42c0-15.07,0-30.13,0-45.2,0-15.35,0-30.69,0-46.04,0-15.35,0-30.69.02-46.04,0-4.91,0-9.82.02-14.73.02-18.36.34-36.72.42-55.08,0-1.6.35-3.7-.76-5.04-1.69-2.03-3.92-.25-5.24,1.28-4.13,4.8-8.11,9.55-11.51,14.94-3.56,5.66-6.65,11.6-9.73,17.53-19.19,36.92-25.45,76.9-26.26,117.88-.56,28.21.25,56.45.11,84.67-.06,12.39,3.39,22.95,12.85,31.32,6.13,5.43,9.03,12.72,10.05,20.6.85,6.55.98,13.2.54,19.85-.64,9.83-.95,19.68-1.44,29.52-.77,15.44-1.54,30.87-2.36,46.31-1.23,23.41-2.49,46.81-3.77,70.21-.8,14.75-1.71,29.5-2.46,44.26-.93,18.32-2.16,36.63-2.49,54.96-.24,12.92,10.72,24.8,22.76,26.15,12.45,1.4,22.98-7.1,26.52-20.92,1.46-5.68.06-11.11-.18-16.66-1.41-32.25-2.94-64.5-3.99-96.77-1.19-36.52-2.32-73.06-2.74-109.59-.17-15.35-.23-30.71-.24-46.06,0-17.33-.11-34.7-.11-52,0-8.45,0-16.91,0-25.36Z"/>
  <g>
    <path class="cls-1" d="M198.57,368.53c1.4,15.05-4.72,31.81-17.58,46.13-3.62,4.02-7.86,7.49-11.92,11.1-8.46,7.52-12.81,16.92-13.02,28.2-.26,13.78,1.19,27.49,1.86,41.23.67,13.73,1.79,27.44,2.65,41.17,1.31,20.84,2.6,41.68,3.86,62.52.8,13.22,1.47,26.45,2.27,39.67,1.28,21.19,2.99,42.36,3.81,63.56.54,13.88,2.99,27.77,1.3,41.67-1.96,16.06-16.96,30.38-31.72,30.96-20.78.82-35.31-9.59-39.53-28.25-2.57-11.37.16-22.68.41-34,.34-15.44,1.76-30.85,2.66-46.28,1.32-22.71,2.62-45.43,3.87-68.15.8-14.58,1.47-29.17,2.26-43.76,1.27-23.23,1.98-46.5,3.81-69.71.77-9.82,1.19-19.69,1.21-29.53.02-10.14-4.39-18.61-11.3-25.89-6.9-7.27-13.79-14.58-19.65-22.72-7.61-10.58-11.86-22.33-11.9-35.53-.06-22.11,1.83-44.12,2.79-66.18.71-16.29,1.61-32.58,2.38-48.86.68-14.42,1.34-28.85,1.88-43.28.12-3.31,1.02-6,4.67-5.91,3.58.09,4.58,2.75,4.53,6.08-.35,22.43-1.67,44.82-2.83,67.22-.8,15.61-1.53,31.22-2.31,46.83-.52,10.52-.75,21.07-1.69,31.55-1.69,18.88,2.91,35.48,15.81,49.77,5.35,5.92,10.5,12,15.96,17.84,9.37,10.03,12.2,22.38,11.46,35.76-1.25,22.55-2.52,45.11-3.79,67.66-1.25,22.04-2.55,44.08-3.77,66.13-.83,15.09-1.5,30.2-2.36,45.29-1.21,21.36-2.58,42.7-3.78,64.06-.64,11.36-1.39,22.74-1.48,34.11-.11,13.4,9.64,25.22,21.31,26.71,14.71,1.88,26.07-5.36,30.55-19.35,1.42-4.45,1.84-8.96,1.55-13.57-1.96-30.5-4.04-61-5.91-91.51-1.23-20-2.08-40.02-3.28-60.02-1.53-25.42-3.52-50.81-4.78-76.24-.81-16.28-2.44-32.52-2.46-48.84-.02-16.57,6.4-30.07,19.22-40.26,18.21-14.48,25.38-33.16,23.19-56.05-.91-9.46-1.01-19-1.38-28.51-1.47-37.69-2.93-75.38-4.3-113.08-.13-3.47-1.71-8.45,4.01-8.74,5.92-.3,4.96,4.71,5.13,8.52,1.28,28.69,2.61,57.37,3.84,86.06.86,20.03,1.57,40.07,2.52,64.41Z"/>
    <path class="cls-1" d="M147.57,282v-8.72c0-19.18-.03-38.36-.12-57.54-.02-3.48.74-6.5,4.45-6.76,4.37-.3,4.99,3.3,5.03,6.7.22,18.86.47,37.71.56,56.57.06,11.52.09,23.03.11,34.55.02,11.52.03,23.03.04,34.55,0,2.45.03,4.9.08,7.35.04,1.95-.12,4.19-1.75,5.52-2.19,1.78-5.82,1.17-7.56-.95-1.43-1.74-.92-4.53-.93-6.61,0-2.76-.05-5.52-.05-8.28,0-11.08.14-22.13.14-33.21v-23.18Z"/>
    <path class="cls-1" d="M112.78,281.45c0-22.36-.04-44.72-.04-67.08.06-2.67.53-4.67,3.27-5.62,3.1-1.07,6.46.18,6.78,3.71.12,1.35.07,2.72.07,4.08-.05,43.69.26,87.39-1.03,131.07-.01.34-.02.68,0,1.02.1,3.32-.93,5.78-4.77,5.7-3.61-.07-4.37-2.5-4.35-5.56.07-10.88.1-21.76.12-32.64,0-11.56-.02-23.12-.05-34.68Z"/>
  </g>
  <path class="cls-1" d="M688.69,369.51c33.83,37.73,54.46,87.54,54.46,142.09,0,117.51-95.6,213.11-213.11,213.11s-213.1-95.6-213.1-213.11,95.6-213.1,213.1-213.1c50.33,0,96.6,17.58,133.1,46.86l1.92-2.42c-37.03-29.7-83.97-47.53-135.02-47.53-119.21,0-216.2,96.98-216.2,216.2s96.98,216.2,216.2,216.2,216.2-96.99,216.2-216.2c0-55.56-21.08-106.28-55.65-144.62l-1.9,2.52Z"/>
</svg>